<svg version="1.1" id="Layer_1" xmlns="http://www.w3.org/2000/svg" xmlns:xlink="http://www.w3.org/1999/xlink" x="0px" y="0px"
	 width="100%" viewBox="0 0 715 594" enable-background="new 0 0 715 594" xml:space="preserve">
<path fill="#000000" opacity="1.000000" stroke="none" 
	d="
M659.000000,595.000000 
	C439.333344,595.000000 220.166672,595.000000 1.000000,595.000000 
	C1.000000,397.000000 1.000000,199.000000 1.000000,1.000000 
	C239.333328,1.000000 477.666656,1.000000 716.000000,1.000000 
	C716.000000,199.000000 716.000000,397.000000 716.000000,595.000000 
	C697.166687,595.000000 678.333313,595.000000 659.000000,595.000000 
M41.365437,568.113892 
	C41.433990,570.314270 40.617405,573.339294 41.746712,574.551392 
	C44.494133,577.500305 47.818336,575.885742 50.530792,573.738281 
	C65.530724,561.862549 81.601875,551.827576 99.245789,544.275330 
	C113.713547,538.082581 128.801254,534.418457 144.364044,533.117615 
	C159.589050,531.845093 174.918045,533.044922 189.767548,536.245483 
	C225.425278,543.931030 260.880402,552.553650 296.437958,560.708069 
	C313.342682,564.584900 330.228149,568.596252 347.244476,571.921692 
	C363.320312,575.063293 379.508514,577.731873 395.735504,579.968933 
	C411.040344,582.078857 426.437378,584.400635 441.835022,584.735535 
	C461.359894,585.160095 480.954834,584.118347 500.465546,582.866699 
	C515.541809,581.899475 530.663940,580.374573 545.535095,577.777222 
	C568.412964,573.781433 591.305664,569.493530 613.805664,563.802124 
	C644.554321,556.024292 674.926758,546.763916 705.498901,538.277405 
	C709.417847,537.189575 710.716309,535.113098 709.683350,531.400879 
	C708.598267,527.501221 705.590515,527.484375 702.519165,528.293518 
	C698.884399,529.251099 695.390625,530.788513 691.730286,531.597473 
	C665.210571,537.458984 638.792236,543.906982 612.083679,548.743774 
	C592.555542,552.280212 572.677368,554.148865 552.876587,555.839294 
	C533.440857,557.498718 513.908081,558.756165 494.413757,558.814697 
	C467.865662,558.894470 441.299591,558.000366 414.768829,556.873901 
	C399.976929,556.245850 385.161896,554.863098 370.500641,552.801147 
	C353.643951,550.430420 336.942596,546.950500 320.179260,543.921936 
	C288.916016,538.273621 257.740692,532.067322 226.363220,527.149841 
	C208.505844,524.351257 190.348526,522.974182 172.273712,522.224670 
	C159.778061,521.706543 147.074860,522.504883 134.673004,524.221802 
	C112.388824,527.306946 91.271240,534.691345 71.945038,546.213196 
	C61.423382,552.485901 51.892998,560.421326 41.365437,568.113892 
M222.011032,265.473663 
	C219.706619,268.940369 217.402222,272.407074 215.158295,275.782806 
	C215.199265,275.834625 214.954605,275.600403 214.800049,275.317047 
	C214.015610,273.878876 213.284653,272.411011 212.480499,270.984222 
	C206.284042,259.990295 197.020859,253.433350 184.304672,253.081741 
	C160.162613,252.414200 146.588669,277.966248 153.884552,297.710388 
	C159.863998,313.891998 170.880859,326.600861 182.465805,338.687195 
	C191.701950,348.323090 202.147171,356.814880 212.278534,365.556274 
	C213.362793,366.491821 216.512665,366.474976 217.723465,365.577148 
	C223.525726,361.274719 229.411255,356.935455 234.485428,351.831970 
	C244.410461,341.849579 254.287964,331.744781 263.301514,320.952637 
	C272.101929,310.415680 278.833405,298.897430 278.252533,283.974457 
	C277.846802,273.550964 270.010040,259.924713 258.803741,255.310486 
	C244.083740,249.249496 228.060776,256.641052 222.011032,265.473663 
z"/>
<path fill="#C6302C" opacity="1.000000" stroke="none" 
	d="
M41.640484,567.860352 
	C51.892998,560.421326 61.423382,552.485901 71.945038,546.213196 
	C91.271240,534.691345 112.388824,527.306946 134.673004,524.221802 
	C147.074860,522.504883 159.778061,521.706543 172.273712,522.224670 
	C190.348526,522.974182 208.505844,524.351257 226.363220,527.149841 
	C257.740692,532.067322 288.916016,538.273621 320.179260,543.921936 
	C336.942596,546.950500 353.643951,550.430420 370.500641,552.801147 
	C385.161896,554.863098 399.976929,556.245850 414.768829,556.873901 
	C441.299591,558.000366 467.865662,558.894470 494.413757,558.814697 
	C513.908081,558.756165 533.440857,557.498718 552.876587,555.839294 
	C572.677368,554.148865 592.555542,552.280212 612.083679,548.743774 
	C638.792236,543.906982 665.210571,537.458984 691.730286,531.597473 
	C695.390625,530.788513 698.884399,529.251099 702.519165,528.293518 
	C705.590515,527.484375 708.598267,527.501221 709.683350,531.400879 
	C710.716309,535.113098 709.417847,537.189575 705.498901,538.277405 
	C674.926758,546.763916 644.554321,556.024292 613.805664,563.802124 
	C591.305664,569.493530 568.412964,573.781433 545.535095,577.777222 
	C530.663940,580.374573 515.541809,581.899475 500.465546,582.866699 
	C480.954834,584.118347 461.359894,585.160095 441.835022,584.735535 
	C426.437378,584.400635 411.040344,582.078857 395.735504,579.968933 
	C379.508514,577.731873 363.320312,575.063293 347.244476,571.921692 
	C330.228149,568.596252 313.342682,564.584900 296.437958,560.708069 
	C260.880402,552.553650 225.425278,543.931030 189.767548,536.245483 
	C174.918045,533.044922 159.589050,531.845093 144.364044,533.117615 
	C128.801254,534.418457 113.713547,538.082581 99.245789,544.275330 
	C81.601875,551.827576 65.530724,561.862549 50.530792,573.738281 
	C47.818336,575.885742 44.494133,577.500305 41.746712,574.551392 
	C40.617405,573.339294 41.433990,570.314270 41.640484,567.860352 
z"/>
<path fill="#C6302C" opacity="1.000000" stroke="none" 
	d="
M222.261566,265.209747 
	C228.060776,256.641052 244.083740,249.249496 258.803741,255.310486 
	C270.010040,259.924713 277.846802,273.550964 278.252533,283.974457 
	C278.833405,298.897430 272.101929,310.415680 263.301514,320.952637 
	C254.287964,331.744781 244.410461,341.849579 234.485428,351.831970 
	C229.411255,356.935455 223.525726,361.274719 217.723465,365.577148 
	C216.512665,366.474976 213.362793,366.491821 212.278534,365.556274 
	C202.147171,356.814880 191.701950,348.323090 182.465805,338.687195 
	C170.880859,326.600861 159.863998,313.891998 153.884552,297.710388 
	C146.588669,277.966248 160.162613,252.414200 184.304672,253.081741 
	C197.020859,253.433350 206.284042,259.990295 212.480499,270.984222 
	C213.284653,272.411011 214.015610,273.878876 214.800049,275.317047 
	C214.954605,275.600403 215.199265,275.834625 215.158295,275.782806 
	C217.402222,272.407074 219.706619,268.940369 222.261566,265.209747 
z"/>
</svg>